<svg id="Layer_1" data-name="Layer 1" xmlns="http://www.w3.org/2000/svg" width="825" height="491" viewBox="0 0 825 491"><defs><style>.cls-1{fill:#929292;}.cls-2{fill:#575757;}.cls-3{fill:#f2f2f2;}.cls-4{fill:#b6b6b6;}.cls-5{fill:#ccc;}.cls-6{fill:#fff;}</style></defs><rect class="cls-1" width="825" height="491" rx="13.38"/><path class="cls-2" d="M251.5,379.5h321a108,108,0,0,1,108,108v0a0,0,0,0,1,0,0h-537a0,0,0,0,1,0,0v0A108,108,0,0,1,251.5,379.5Z"/><rect class="cls-3" x="48" y="50" width="729" height="310" rx="13.38"/><rect class="cls-4" x="252" y="229" width="322" height="109" rx="54.5"/><circle cx="310.92" cy="283.05" r="42.19"/><circle cx="513.87" cy="283.05" r="42.19"/><rect class="cls-5" x="89.17" y="81" width="221.83" height="12"/><rect class="cls-5" x="89.17" y="175" width="221.83" height="12"/><rect class="cls-5" x="89.17" y="128" width="221.83" height="12"/><path d="M1013,492.89l-3.11,3.11H882.2l-3-3.17V365.18l3.16-3H1010l3,3.16Zm-46.75-76.63-.31,0v31.1l.28-.16,1.17,1.57,2.36,1.61v1l-1.26.1-.11.89-2.44,1.88v36.34l.24-.14,1.25,1.71.93.11.11,1.24h16.89l.19-1.23,1.34-.24v-2.55l.35.22a6.55,6.55,0,0,1,1-1.12,1.13,1.13,0,0,1,1-.05,7.55,7.55,0,0,1,1.12,1.21l.32-.18v2.57l1.27.11.26,1.27h15.41l.19-1.26,1.24-.13c0-.43.06-.82.1-1.27l1.27-.11V454.27l-2.68-1.86-.13-1c-1,.1-1.64-.16-1.29-1l2.74-1.86.12-1,1.24-.1V416l-1.26-.19c-.05-.44-.08-.79-.08-.79l-1.91-1.57H992.29l.15.32-1.77,1.2v2.24l-.37-.23a6.38,6.38,0,0,1-1,1.12,1.12,1.12,0,0,1-1,0,7.74,7.74,0,0,1-1.15-1.21l-.31.18v-2.69c-1.15.48-1.41-.25-1.54-1H968.58l.15.26-1.53,1.17ZM881.64,416v74.72l1.3.11.1,1.28,1.26.13.17,1.27h37.82l.12-1.27,1.25-.14.19-1.24,1.22-.2V453.94h-2.16l-1.68-1.61V450.5l1.68-1.63h2.16V416l-1.23-.17-.21-1.27-.29.24-1.47-1.36H885l-2,1.58-.07.85Zm80-2.53H929.21l.16.29L927.7,415l-.1.88-1.26.17v74.7l1.26.11.15,1.25,1.24.19.19,1.23h32.47l.17-1.23,1.25-.21.12-1.16,1.26-.26V416l-1.26-.19-.15-1.3C962.2,414.69,961.49,414.58,961.67,413.47Zm-15.51-46.06v41.76l.93.09,1.84,2.71h27.24l.12-1.27,1.25-.15.19-1.23,1.22-.21V367.45l-1.23-.16-.2-1.25-1.17-.14c-.1-.47-.19-.89-.26-1.24H948.94l-1.87,2.67ZM916,411.94h27l1.59-1.81V367.31c-1.58.61-.78-.85-1.21-1.29l-1.12-.11-.26-1.26H916l-.18,1.24-1.25.2-.13,1.23-1.24.11v41.73l1.25.2.14,1.24,1.27.1Zm64.19-44.53v41.76l1.3.12.1,1.27,1.26.14c.07.48.12.87.17,1.21h3.88v-3.7a2.69,2.69,0,0,1,2.61,2.35l1.15.14c.08.48.13.87.19,1.27h9.06l.12-1.26,1.24-.16a2.5,2.5,0,0,1,2.66-2.24V412h3.79l.13-1.24,1.24-.18.2-1.21,1.21-.23V367.45l-1.23-.17-.21-1.24-1.23-.15-.11-1.23H999c-.44.55-.74.93-1,1.32s-.52.8-.86,1.34l-1,.13c-.17,1.31-.17,1.31-1.44,1.19l-.1-1.19-1-.13-1.81-2.66H983l-.19,1.25-1.24.14-.1,1.26ZM884.44,412h24.73l.12-1.24,1.24-.18.2-1.21,1.2-.22V389.67h-2.65l.23-.35-1.37-1.53V386l.27.15,1.26-1.78h2.26v-16.9l-1.26-.2-.13-1.24-1.26-.1-.12-1.3H884.43l-.11,1.3-1.27.1-.14,1.27-1.28.17v41.73l1.29.11.12,1.26,1.27.18Z" transform="translate(-534 -295)"/><path class="cls-6" d="M966.25,416.26l1-1.37,1.54-1.17-.16-.25h16.69c.13.76.39,1.49,1.54,1v2.69l.31-.18a7.76,7.76,0,0,0,1.15,1.21,1.06,1.06,0,0,0,1,0,6.78,6.78,0,0,0,1-1.11l.36.22V415l1.77-1.21-.15-.31h14.93l1.91,1.57s0,.35.08.78l1.26.2v31.41l-1.24.11-.11,1-2.75,1.86c-.35.86.26,1.12,1.29,1l.13,1,2.68,1.87v36.44l-1.26.11c0,.45-.07.84-.1,1.27l-1.24.14-.2,1.25H992.28l-.26-1.27-1.27-.11v-2.57l-.32.18a7.55,7.55,0,0,0-1.12-1.21,1.11,1.11,0,0,0-1,.06,6.9,6.9,0,0,0-1,1.11l-.35-.21v2.55l-1.34.24-.19,1.22H968.49l-.1-1.24-.94-.1-1.26-1.74-.24.14V454.22l2.44-1.88.11-.89,1.26-.1v-1l-2.36-1.61-1.17-1.57-.28.16V416.26Z" transform="translate(-534 -295)"/><path class="cls-6" d="M881.64,416l1.3-.11.07-.85,2-1.57H921.9l1.47,1.35.29-.24.21,1.27,1.23.17v32.84h-2.16l-1.68,1.63v1.83l1.68,1.61h2.16v36.72l-1.23.2-.19,1.24-1.25.14-.11,1.27H884.47l-.17-1.27-1.26-.13-.1-1.28-1.3-.11Zm23.59,19.72.2-1.27,1.19-.19c.47-1.34-.46-1.32-1.21-1.36l-.19-1.26H900c.18.86,0,1.54-1.46,1.33l1.83,2.75Zm.11,37.13,1.5-1.2-.24-.38-1.22-.1-.12-1.27h-5.18l.23.37a5.93,5.93,0,0,0-1.11,1,1.07,1.07,0,0,0,0,1,10.64,10.64,0,0,0,1.47,1.38h4.64Z" transform="translate(-534 -295)"/><path class="cls-6" d="M961.67,413.47c-.18,1.11.56,1.2,1.36,1l.14,1.3,1.26.2v74.62l-1.26.26-.12,1.16-1.25.21-.16,1.23H929.17l-.2-1.23-1.24-.19-.14-1.25-1.27-.11V416l1.27-.17.09-.88,1.68-1.21-.17-.3Zm-16.78,34,.17.4-2.79,2.68v2.1l.36-.27,2.67,2.79h2.1l-.27-.36,2.79-2.68v-2.1l-.36.27-2.71-2.83Z" transform="translate(-534 -295)"/><path class="cls-6" d="M946.16,367.43l.91-.1,1.87-2.67h27.15c.07.35.16.77.26,1.24l1.17.14.2,1.25,1.23.16v41.68l-1.22.21-.19,1.22-1.25.16-.12,1.26H948.93l-1.84-2.71-.93-.08Zm11.73,18.42v2.36l1.22.17.21,1.25,1.16.13.26,1.24H963l.2-1.25,1.23-.14.1-1.25,1.3-.14v-2.38l-1.3-.11-.1-1.27-1.25-.16-.2-1.25h-2.35l-.12,1.25-1.24.17-.2,1.25Z" transform="translate(-534 -295)"/><path class="cls-6" d="M916,412l-.11-1.25-1.27-.1-.14-1.24-1.25-.2V367.43l1.24-.11.13-1.23,1.25-.2.18-1.24h26l.26,1.26,1.12.11c.43.44-.37,1.9,1.21,1.29v42.84L943,412Zm16-23.6.95-.16v-2.33l-1-.11-1.79-2.68h-2.38l-.19,1.27-1.35.13c.52,1.11-.3,1.32-1,1.48v2.19l.28-.17,1.25,1.71.86.08.16,1.28h2.32Z" transform="translate(-534 -295)"/><path class="cls-6" d="M980.19,367.43l1.29-.12.1-1.26,1.24-.14.2-1.25h8.79l1.81,2.66,1,.13.1,1.19c1.27.12,1.27.12,1.45-1.19l1-.13c.35-.55.59-.95.86-1.34s.56-.74,1-1.32h8.75l.11,1.23,1.23.15.21,1.24,1.23.17v41.67l-1.22.22-.2,1.22-1.23.17-.14,1.25h-3.79v-3.66a2.5,2.5,0,0,0-2.65,2.23l-1.24.17L999.9,412h-9c-.06-.39-.12-.78-.19-1.26l-1.16-.14a2.69,2.69,0,0,0-2.61-2.36v3.71H983c0-.35-.1-.73-.17-1.22l-1.26-.14-.1-1.27-1.29-.11Z" transform="translate(-534 -295)"/><path class="cls-6" d="M884.44,412l-.12-1.24-1.27-.18-.12-1.26-1.28-.11V367.46l1.27-.17.14-1.27,1.27-.1.11-1.3h24.73l.12,1.3,1.27.1.12,1.24,1.27.2v16.9h-2.27l-1.26,1.78-.27-.15v1.8l1.36,1.53-.23.35h2.66v19.45l-1.2.22-.2,1.22-1.24.17-.13,1.25Zm13-9.2.2-1.34c1.06.11,1.6-.19,1-1.11L897,399h-1.75l-1.6,1.59a2.08,2.08,0,0,0,.24.84,8.48,8.48,0,0,0,1.21,1.11l-.18.27Zm-2.54-27.55.17.27a7.79,7.79,0,0,0-1.19,1.11,1.12,1.12,0,0,0,0,1,10.65,10.65,0,0,0,1.41,1.36h2.14l.19-1.23,1.27-.2.16-.42-1.5-.9-.11-1Z" transform="translate(-534 -295)"/><path d="M905.23,435.73h-4.87L898.53,433c1.5.22,1.64-.46,1.46-1.32h5.23l.19,1.26c.75,0,1.68,0,1.21,1.35l-1.19.2Z" transform="translate(-534 -295)"/><path d="M905.35,472.86l-.08.81h-4.64a10.64,10.64,0,0,1-1.47-1.38,1.07,1.07,0,0,1,0-1,5.93,5.93,0,0,1,1.11-1l-.23-.37h5.18l.12,1.27,1.22.1.24.38Z" transform="translate(-534 -295)"/><path d="M944.89,447.52h2l2.71,2.85.36-.28v2.11l-2.8,2.68.28.35h-2.1l-2.68-2.79-.36.28v-2.1l2.79-2.68Z" transform="translate(-534 -295)"/><path d="M957.88,385.87l1.21-.14.2-1.25,1.24-.16.13-1.25H963l.19,1.25,1.25.16.11,1.27,1.29.1v2.39l-1.29.14-.1,1.25-1.24.14L963,391h-2.29l-.26-1.24-1.16-.14-.21-1.24-1.23-.18Z" transform="translate(-534 -295)"/><path d="M932,388.35,930.06,391h-2.32l-.16-1.28-.86-.08-1.28-1.7-.28.16V386c.72-.16,1.54-.36,1-1.49l1.35-.13.19-1.26h2.38l1.79,2.67,1,.11v2.34Z" transform="translate(-534 -295)"/><path d="M897.42,402.78h-2.55l.18-.27a8.47,8.47,0,0,1-1.2-1.12,1.74,1.74,0,0,1-.24-.83l1.6-1.58H897l1.68,1.37c.6.92.06,1.22-1,1.12Z" transform="translate(-534 -295)"/><path d="M894.88,375.23h2.55l.11,1,1.5.93-.16.41-1.26.21-.19,1.23H895.3a10.68,10.68,0,0,1-1.41-1.36,1.12,1.12,0,0,1,0-1,7.44,7.44,0,0,1,1.19-1.12Z" transform="translate(-534 -295)"/><rect class="cls-5" x="512.21" y="81" width="221.83" height="12"/><rect class="cls-5" x="512.21" y="175" width="221.83" height="12"/><rect class="cls-5" x="512.21" y="128" width="221.83" height="12"/></svg>
